#!OML:ASF E:\id_vita\Project 1\Capture day 1\Session 1\Female.ASF
:FULLY-SPECIFIED
:DEGREES
528
root 45.1158 16.4114 -1.29467 736.882 81.7752 726.052
lowerback -15.8784 -1.01402 -4.58858
upperback -3.27977 -0.495368 0.968639
thorax 5.45156 -0.253213 3.53734
lowerneck 0.258145 2.9592 -0.728977
upperneck 22.0347 4.06919 3.99674
head 6.54549 2.4853 1.65766
rclavicle 1.43498e-015 1.39149e-014
rhumerus -44.0399 -32.6302 -63.8049
rradius 19.8975
rwrist 18.8031
rhand -16.2327 5.19572
rfingers 7.12502
rthumb 9.97566 -24.5479
lclavicle 1.43498e-015 1.39149e-014
lhumerus -9.00659 16.4679 89.238
lradius 27.3997
lwrist -22.3512
lhand -10.6042 22.9544
lfingers 7.12502
lthumb 15.4018 52.3607
rfemur -36.1679 9.21437 17.8761
rtibia 34.7793
rfoot -13.0941 -8.22219
rtoes -12.3768
lfemur -18.4368 -7.34106 -24.9722
ltibia 28.9124
lfoot -24.9594 10.2941
ltoes 3.59285
529
root 45.176 16.41 -1.26394 735.203 81.8091 724.454
lowerback -15.5698 -1.17632 -4.69798
upperback -3.40276 -0.718797 1.1613
thorax 5.1776 -0.355386 3.75976
lowerneck 0.338458 3.05288 -0.625377
upperneck 22.1345 4.23113 3.80937
head 6.56769 2.55952 1.58938
rclavicle -2.88859e-015 7.7526e-015
rhumerus -44.2398 -32.5088 -63.6519
rradius 19.7358
rwrist 18.9769
rhand -16.2517 5.39824
rfingers 7.12502
rthumb 9.95732 -24.3462
lclavicle -2.88859e-015 7.7526e-015
lhumerus -9.66499 17.0195 88.9464
lradius 26.9655
lwrist -22.8384
lhand -10.1568 23.1122
lfingers 7.12502
lthumb 15.8327 52.4848
rfemur -35.9174 9.77232 18.0518
rtibia 33.3418
rfoot -12.6355 -7.74492
rtoes -11.49
lfemur -17.9227 -7.26887 -24.6795
ltibia 28.6771
lfoot -25.5623 10.3542
ltoes 3.10934
530
root 45.2629 16.415 -1.25773 735.838 81.6049 725.035
lowerback -15.8813 -1.17768 -4.61035
upperback -3.42059 -0.711768 1.08411
thorax 5.3252 -0.352115 3.62878
lowerneck 0.274034 3.071 -0.608745
upperneck 22.2587 4.26393 3.77241
head 6.61968 2.57604 1.58096
rclavicle -4.31922e-014 -6.95746e-015
rhumerus -44.4209 -32.3609 -63.7023
rradius 19.7655
rwrist 18.7815
rhand -16.3692 5.58481
rfingers 7.12502
rthumb 9.84394 -24.1651
lclavicle -4.31922e-014 -6.95746e-015
lhumerus -10.2968 17.2627 88.7008
lradius 26.6594
lwrist -23.2792
lhand -10.3322 23.0448
lfingers 7.12502
lthumb 15.6637 52.4307
rfemur -35.7694 9.9619 17.8924
rtibia 32.0237
rfoot -12.3648 -6.80775
rtoes -8.78372
lfemur -17.4089 -7.52204 -24.8436
ltibia 28.3645
lfoot -25.9303 10.5799
ltoes 3.74415
531
root 45.3181 16.4173 -1.24288 733.731 81.5466 722.785
lowerback -16.1847 -1.18296 -4.40302
upperback -3.23126 -0.752487 1.25118
thorax 5.69563 -0.385013 3.68053
lowerneck 0.0669318 3.11555 -0.577307
upperneck 22.0103 4.33774 3.5793
head 6.57932 2.58944 1.51593
rclavicle 1.51573e-015 -4.27387e-015
rhumerus -43.9864 -32.1556 -64.1425
rradius 19.9825
rwrist 18.2586
rhand -16.338 5.51985
rfingers 7.12502
rthumb 9.87405 -24.2286
lclavicle 1.51573e-015 -4.27387e-015
lhumerus -10.4392 17.5986 88.7548
lradius 26.4974
lwrist -23.502
lhand -10.1326 23.2854
lfingers 7.12502
lthumb 15.8559 52.6561
rfemur -35.8303 10.4584 18.1411
rtibia 30.7343
rfoot -11.5785 -6.04321
rtoes -8.41159
lfemur -17.1596 -7.7208 -24.4199
ltibia 28.082
lfoot -25.9107 10.5726
ltoes 4.65739
532
root 45.378 16.4172 -1.22728 736.899 81.2634 725.598
lowerback -16.2205 -1.1855 -4.80484
upperback -3.56065 -0.664636 1.06095
thorax 5.35657 -0.325376 3.72472
lowerneck 0.312328 3.1222 -0.410971
upperneck 21.9464 4.34617 3.56281
head 6.52091 2.60644 1.47643
rclavicle -9.69075e-016 2.28602e-015
rhumerus -44.5133 -31.8203 -64.2241
rradius 20.2555
rwrist 17.6756
rhand -16.2478 5.52437
rfingers 7.12502
rthumb 9.96113 -24.2199
lclavicle -9.69075e-016 2.28602e-015
lhumerus -11.3238 17.7907 88.3699
lradius 26.1688
lwrist -23.8555
lhand -9.7047 23.1415
lfingers 7.12502
lthumb 16.268 52.479
rfemur -36.2268 10.9337 17.4359
rtibia 29.5323
rfoot -10.2862 -5.15582
rtoes -4.5815
lfemur -17.1726 -7.8171 -24.8511
ltibia 27.7999
lfoot -25.9003 10.6272
ltoes 5.11179
533
root 45.4428 16.4178 -1.20725 737.153 81.251 725.697
lowerback -16.0588 -1.19104 -4.81804
upperback -3.82968 -0.668752 1.00798
thorax 4.98245 -0.307647 3.67491
lowerneck 0.513039 3.14798 -0.359627
upperneck 21.9513 4.37226 3.64521
head 6.48661 2.63196 1.49124
rclavicle -3.94463e-015 2.98177e-015
rhumerus -45.0328 -31.3492 -64.4282
rradius 20.6874
rwrist 16.8886
rhand -16.1118 5.46528
rfingers 7.12502
rthumb 10.0923 -24.2727
lclavicle -3.94463e-015 2.98177e-015
lhumerus -12.1955 18.2937 87.9471
lradius 25.6385
lwrist -24.8456
lhand -9.50013 22.6565
lfingers 7.12502
lthumb 16.465 51.9778
rfemur -36.2722 11.442 17.2255
rtibia 28.3953
rfoot -8.53746 -4.41493
rtoes -0.748689
lfemur -16.9709 -7.77956 -24.832
ltibia 27.5792
lfoot -26.0149 10.4667
ltoes 5.44784
534
root 45.5041 16.4179 -1.18789 735.266 81.3152 723.671
lowerback -16.3573 -1.213 -4.59419
upperback -3.677 -0.730056 1.14523
thorax 5.31195 -0.348768 3.68117
lowerneck 0.372233 3.20479 -0.473286
upperneck 21.7287 4.43628 3.66579
head 6.43419 2.64741 1.51742
rclavicle -2.03816e-014 -1.05356e-014
rhumerus -44.7866 -31.0083 -64.98
rradius 21.2412
rwrist 16.074
rhand -15.895 5.19895
rfingers 7.12502
rthumb 10.3015 -24.5288
lclavicle -2.03816e-014 -1.05356e-014
lhumerus -12.4743 19.1213 87.8169
lradius 25.2181
lwrist -26.1467
lhand -9.32003 22.3101
lfingers 7.12502
lthumb 16.6384 51.6169
rfemur -36.2397 11.9656 17.4132
rtibia 27.3723
rfoot -7.76 -4.34178
rtoes -2.31191
lfemur -16.7338 -7.74362 -24.4536
ltibia 27.357
lfoot -25.9848 10.3542
ltoes 5.62042
535
root 45.577 16.4181 -1.17529 736.169 81.2104 724.642
lowerback -16.5611 -1.2455 -4.63876
upperback -3.5136 -0.753651 1.06849
thorax 5.59839 -0.373231 3.61931
lowerneck 0.277917 3.25568 -0.494407
upperneck 21.5631 4.49045 3.68961
head 6.39475 2.66761 1.5291
rclavicle 4.83295e-015 -2.5842e-015
rhumerus -44.6911 -31.1241 -65.1225
rradius 21.2921
rwrist 15.9597
rhand -15.7672 5.1181
rfingers 7.12502
rthumb 10.4248 -24.6035
lclavicle 4.83295e-015 -2.5842e-015
lhumerus -12.9983 19.7864 87.4952
lradius 24.8887
lwrist -27.1132
lhand -9.00863 22.0213
lfingers 7.12502
lthumb 16.9381 51.3027
rfemur -35.895 12.2801 17.1752
rtibia 26.407
rfoot -7.49863 -4.10778
rtoes -1.46544
lfemur -16.2437 -7.69311 -24.7018
ltibia 27.2211
lfoot -25.9761 10.4626
ltoes 5.65469
536
root 45.6457 16.416 -1.15328 736.433 81.2121 724.825
lowerback -16.4195 -1.33073 -4.73275
upperback -3.75518 -0.853301 1.09795
thorax 5.27514 -0.406557 3.6839
lowerneck 0.519539 3.29278 -0.570313
upperneck 21.5476 4.55024 3.70629
head 6.34465 2.69369 1.54408
rclavicle -3.088e-014 -4.87022e-015
rhumerus -45.076 -30.7805 -65.0578
rradius 21.2152
rwrist 15.7136
rhand -15.6975 5.07991
rfingers 7.12502
rthumb 10.492 -24.6383
lclavicle -3.088e-014 -4.87022e-015
lhumerus -14.0939 20.564 86.9839
lradius 24.4228
lwrist -27.9057
lhand -8.5955 21.8875
lfingers 7.12502
lthumb 17.3358 51.1344
rfemur -35.7276 12.7571 17.0223
rtibia 25.5456
rfoot -7.47502 -4.38776
rtoes -3.27754
lfemur -16.0158 -7.69481 -24.7118
ltibia 27.1459
lfoot -25.9459 10.5568
ltoes 5.53693
537
root 45.7026 16.4077 -1.13039 736.682 81.1879 725.169
lowerback -16.4926 -1.37513 -4.89495
upperback -3.54234 -0.886228 1.09892
thorax 5.54719 -0.440032 3.76992
lowerneck 0.294119 3.32498 -0.665711
upperneck 21.3556 4.58017 3.71772
head 6.31809 2.69391 1.56527
rclavicle 2.50904e-014 -4.67144e-015
rhumerus -44.7431 -30.4339 -65.6795
rradius 21.4664
rwrist 14.9547
rhand -15.5599 4.90241
rfingers 7.12502
rthumb 10.6247 -24.809
lclavicle 2.50904e-014 -4.67144e-015
lhumerus -14.3381 21.5206 86.712
lradius 23.7331
lwrist -28.9066
lhand -8.30055 21.8196
lfingers 7.12502
lthumb 17.6196 51.0413
rfemur -35.4518 13.0944 16.9883
rtibia 24.9169
rfoot -7.34195 -4.31586
rtoes -5.45357
lfemur -15.6543 -7.9454 -24.7321
ltibia 27.0102
lfoot -25.7621 10.7988
ltoes 5.31639
538
root 45.7882 16.4051 -1.10453 735.264 81.3025 723.762
lowerback -16.857 -1.41816 -4.67631
upperback -3.40378 -0.965388 1.13902
thorax 5.89824 -0.488283 3.66978
lowerneck 0.112893 3.3605 -0.701135
upperneck 21.3716 4.62052 3.74282
head 6.35177 2.71095 1.58567
rclavicle 2.10401e-014 5.06901e-015
rhumerus -44.7069 -30.0617 -66.1534
rradius 21.7146
rwrist 14.1667
rhand -15.4149 5.01106
rfingers 7.12502
rthumb 10.7646 -24.6931
lclavicle 2.10401e-014 5.06901e-015
lhumerus -14.9219 22.5422 86.2411
lradius 23.0549
lwrist -30.1495
lhand -8.04635 21.6821
lfingers 7.12502
lthumb 17.8642 50.8816
rfemur -35.0127 13.195 17.319
rtibia 24.3356
rfoot -7.34233 -3.97515
rtoes -6.31739
lfemur -15.2637 -8.22919 -24.5032
ltibia 26.9732
lfoot -25.6796 11.0923
ltoes 5.18636
539
root 45.8476 16.4017 -1.08675 737.937 81.2406 726.45
lowerback -16.7955 -1.44889 -5.0537
upperback -3.40231 -0.93381 0.999759
thorax 5.86638 -0.47749 3.74279
lowerneck -0.0562538 3.38023 -0.611883
upperneck 21.4279 4.65448 3.66016
head 6.40291 2.72804 1.55169
rclavicle -7.3364e-015 -1.37161e-014
rhumerus -44.8118 -30.1583 -66.1633
rradius 21.7065
rwrist 13.9265
rhand -15.3352 5.3468
rfingers 7.12502
rthumb 10.8414 -24.3534
lclavicle -7.3364e-015 -1.37161e-014
lhumerus -15.5624 23.6112 85.8029
lradius 22.3427
lwrist -31.4468
lhand -7.84182 21.5293
lfingers 7.12502
lthumb 18.061 50.7107
rfemur -34.8095 13.2917 16.8717
rtibia 23.9124
rfoot -7.12538 -3.14209
rtoes -7.69895
lfemur -14.9306 -7.67234 -25.0611
ltibia 26.9814
lfoot -25.5894 10.8774
ltoes 4.66715
540
root 45.9204 16.401 -1.06614 737.562 81.3527 726.015
lowerback -17.1719 -1.4515 -4.96444
upperback -3.22912 -0.934278 1.01179
thorax 6.25512 -0.491436 3.70313
lowerneck -0.309095 3.40144 -0.501341
upperneck 21.3331 4.69196 3.505
head 6.42256 2.73809 1.48949
rclavicle 1.04051e-015 1.23246e-014
rhumerus -44.739 -30.3192 -66.2466
rradius 21.7513
rwrist 13.8174
rhand -15.33 5.43819
rfingers 7.12502
rthumb 10.8465 -24.2617
lclavicle 1.04051e-015 1.23246e-014
lhumerus -16.005 24.7049 85.4487
lradius 21.6088
lwrist -32.7515
lhand -7.78635 21.5011
lfingers 7.12502
lthumb 18.1144 50.6776
rfemur -34.5264 13.365 17.0066
rtibia 23.582
rfoot -7.03143 -2.15608
rtoes -10.6683
lfemur -14.6021 -6.95036 -25.0827
ltibia 27.0568
lfoot -25.7994 10.5043
ltoes 4.25727
541
root 45.992 16.3912 -1.0427 736.071 81.5448 724.469
lowerback -16.856 -1.44195 -4.66194
upperback -3.56217 -0.986621 1.02996
thorax 5.72816 -0.487008 3.54052
lowerneck 0.000620238 3.41168 -0.468753
upperneck 21.3737 4.71533 3.52202
head 6.3823 2.75808 1.48454
rclavicle -8.64403e-015 -6.36111e-015
rhumerus -45.5248 -29.7433 -66.3415
rradius 22.1128
rwrist 13.1758
rhand -15.2974 5.17822
rfingers 7.12502
rthumb 10.8779 -24.52
lclavicle -8.64403e-015 -6.36111e-015
lhumerus -17.3697 25.7439 84.5403
lradius 20.7734
lwrist -34.3241
lhand -7.68341 21.4916
lfingers 7.12502
lthumb 18.2134 50.6589
rfemur -34.2573 13.5576 17.2986
rtibia 23.6059
rfoot -6.91354 -1.5544
rtoes -11.7364
lfemur -14.438 -7.41163 -24.7136
ltibia 26.9521
lfoot -25.7262 10.4363
ltoes 5.84232
542
root 46.0571 16.3906 -1.01557 734.16 81.7188 722.456
lowerback -16.9292 -1.44336 -4.45353
upperback -3.60625 -1.02621 1.13676
thorax 5.72307 -0.501588 3.5273
lowerneck 0.149048 3.44997 -0.391121
upperneck 21.1881 4.77925 3.41995
head 6.30113 2.78436 1.43443
rclavicle -3.31411e-015 1.58034e-014
rhumerus -45.8352 -29.6713 -66.3676
rradius 22.3014
rwrist 12.9187
rhand -15.1956 5.06089
rfingers 7.12502
rthumb 10.9761 -24.6322
lclavicle -3.31411e-015 1.58034e-014
lhumerus -18.1519 27.5529 83.755
lradius 19.6412
lwrist -36.5406
lhand -7.50068 21.2969
lfingers 7.12502
lthumb 18.3892 50.4477
rfemur -34.0633 13.8951 17.5929
rtibia 23.8065
rfoot -6.26785 -1.10694
rtoes -8.55909
lfemur -13.9765 -6.67843 -24.4478
ltibia 26.7935
lfoot -25.663 10.3396
ltoes 3.89835
